<?xml version="1.0" encoding="utf-8"?>
<!-- Generator: Adobe Illustrator 18.1.0, SVG Export Plug-In . SVG Version: 6.00 Build 0)  -->
<!DOCTYPE svg PUBLIC "-//W3C//DTD SVG 1.1//EN" "http://www.w3.org/Graphics/SVG/1.1/DTD/svg11.dtd">
<svg version="1.1" id="Layer_1" xmlns="http://www.w3.org/2000/svg" xmlns:xlink="http://www.w3.org/1999/xlink" x="0px" y="0px"
	 viewBox="0 0 612 792" enable-background="new 0 0 612 792" xml:space="preserve">
<path fill="#E16A64" d="M508.2,539.6c0,0,106.6-39.3,103.8-120.6c-2.6-73.8-55.8-138.3-180.6-124.6c-35.4,3.9-69.9,16.1-97.7,38.4
	C311,351,288.9,378.1,283.9,416c-11.2,84.3,95.4,146,140.2,123.5c0,0,52.3,86.3,129.1,59.5c3.5-1.2,4.1-6.1,1-8.2
	C539.7,580.7,508.2,556.8,508.2,539.6z"/>
<path fill="#E16A64" d="M453.5,238c0,0-80.8-121.2-252.5-90.6c-47.8,8.5-93.8,27.7-130.6,59.3c-40.8,34.9-82.7,93-67.2,178.6
	c28.1,155.7,237.1,143,237.1,143s10.3,56.4-41.5,88.3c-6.9,4.3-10.9,12.2-9.7,20.2c2.1,13.8,18.5,25.6,93.9-15.9
	c0,0,48.2-25.4,49.2-52.7c0.3-7.4-5.2-13.8-12.6-14.1c-6.7-0.3-16,2.7-26,16.3c-19.6,26.7-35.1,28.1-35.1,28.1s36.5-99.6-5.6-99.6
	c-36.8,0-185.3-6.4-213.4-122.7c-8.5-35-1-72,19.4-101.7c30.8-44.7,96.6-105.3,224.1-95.5c0,0,82.2,0,136.9,63.2
	c0,0,6.5,9.3,15.6,13.6c7.8,3.7,17.3-0.2,19.4-8.6C455.6,244.5,455.5,241.3,453.5,238z"/>
</svg>
