<svg xmlns="http://www.w3.org/2000/svg" width="432" height="432" viewBox="0 0 432 432"><style type="text/css">.st0{fill:#343B4D;} .st1{fill:#A5B2C2;}</style><circle class="st0" cx="216" cy="216" r="216"/><path class="st1" d="M302.1 277.1s45.4-16.7 44.2-51.4c-1.1-31.4-23.8-58.9-76.9-53.1-15.1 1.7-29.8 6.9-41.6 16.4-9.7 7.8-19.1 19.3-21.2 35.4-4.8 35.9 40.6 62.2 59.7 52.6 0 0 22.3 36.8 55 25.3 1.5-.5 1.7-2.6.4-3.5-6.2-4.2-19.6-14.3-19.6-21.7zm-23.3-128.4s-34.4-51.6-107.5-38.6c-20.4 3.6-39.9 11.8-55.6 25.3-17.4 14.8-35.3 39.6-28.7 76 12 66.3 101 60.9 101 60.9s4.4 24-17.7 37.6c-2.9 1.8-4.6 5.2-4.1 8.6.9 5.9 7.9 10.9 40-6.8 0 0 20.5-10.8 21-22.4.1-3.2-2.2-5.9-5.4-6-2.9-.1-6.8 1.1-11.1 6.9-8.3 11.4-14.9 12-14.9 12s15.5-42.4-2.4-42.4c-15.7 0-78.9-2.7-90.9-52.3-3.6-14.9-.4-30.7 8.3-43.3 13.1-19 41.1-44.8 95.4-40.7 0 0 35 0 58.3 26.9 0 0 2.8 4 6.6 5.8 3.3 1.6 7.4-.1 8.3-3.7.3-1 .3-2.4-.6-3.8z"/></svg>