<?xml version="1.0" encoding="utf-8"?>
<!-- Generator: Adobe Illustrator 18.1.0, SVG Export Plug-In . SVG Version: 6.00 Build 0)  -->
<!DOCTYPE svg PUBLIC "-//W3C//DTD SVG 1.1//EN" "http://www.w3.org/Graphics/SVG/1.1/DTD/svg11.dtd">
<svg version="1.1" id="Layer_1" xmlns="http://www.w3.org/2000/svg" xmlns:xlink="http://www.w3.org/1999/xlink" x="0px" y="0px"
	 viewBox="256.2 416.3 612.3 646.6" enable-background="new 256.2 416.3 612.3 646.6" xml:space="preserve">
<path fill="#E16A64" d="M764.7,851.4c0,0,106.7-39.3,103.9-120.7C866,656.9,812.8,592.3,687.9,606c-35.4,3.9-69.9,16.1-97.7,38.4
	c-22.8,18.3-44.9,45.4-49.9,83.3c-11.2,84.3,95.4,146.1,140.3,123.6c0,0,52.3,86.3,129.2,59.5c3.5-1.2,4.1-6.1,1-8.2
	C796.2,892.5,764.7,868.6,764.7,851.4z"/>
<path fill="#E16A64" d="M710,549.6c0,0-80.8-121.3-252.6-90.6c-47.8,8.5-93.8,27.7-130.7,59.3c-40.8,34.9-82.7,93-67.2,178.7
	c28.1,155.8,237.2,143.1,237.2,143.1s10.3,56.4-41.5,88.3c-6.9,4.3-10.9,12.2-9.7,20.2c2.1,13.8,18.5,25.6,93.9-15.9
	c0,0,48.2-25.4,49.2-52.7c0.3-7.4-5.2-13.8-12.6-14.1c-6.7-0.3-16,2.7-26,16.3c-19.6,26.7-35.1,28.1-35.1,28.1s36.5-99.6-5.6-99.6
	c-36.8,0-185.4-6.4-213.5-122.8c-8.5-35-1-72,19.4-101.7c30.8-44.7,96.6-105.4,224.2-95.5c0,0,82.2,0,137,63.2
	c0,0,6.5,9.3,15.6,13.6c7.8,3.7,17.3-0.2,19.4-8.6C712.1,556.1,712,552.9,710,549.6z"/>
</svg>
