<?xml version="1.0" encoding="utf-8"?>
<!-- Generator: Adobe Illustrator 18.1.1, SVG Export Plug-In . SVG Version: 6.00 Build 0)  -->
<!DOCTYPE svg PUBLIC "-//W3C//DTD SVG 1.1//EN" "http://www.w3.org/Graphics/SVG/1.1/DTD/svg11.dtd">
<svg version="1.1" id="Layer_1" xmlns="http://www.w3.org/2000/svg" xmlns:xlink="http://www.w3.org/1999/xlink" x="0px" y="0px"
	 viewBox="224 372 163 45.5" enable-background="new 224 372 163 45.5" xml:space="preserve">
<g>
	<path fill="#FFFFFF" d="M236.9,410.4H224v-6.1l9.3-32.3h6.9l-9.7,32.3h6.4v-12.9h6.5v12.9h3.1v6.1h-3.1v6.7h-6.5V410.4z"/>
	<path fill="#444545" d="M250.1,372h19.3v6.1h-12.8v13.3h11.2v6.1h-11.2v13.3h12.8v6.5h-19.3V372z"/>
	<path fill="#444545" d="M284.5,417.2h-5.7l-8.4-32.2h6.9l4.3,20.6h0.1L286,385h6.9L284.5,417.2z"/>
	<path fill="#444545" d="M300,403.5v4.4c0,1,0.3,1.8,0.9,2.3c0.6,0.5,1.3,0.8,2.3,0.8c1.2,0,2-0.4,2.4-1.1c0.4-0.7,0.6-1.4,0.7-2.2
		h6.5c0,1.4-0.2,2.6-0.7,3.8c-0.4,1.2-1.1,2.2-1.9,3c-0.8,0.9-1.9,1.6-3,2.1c-1.2,0.5-2.5,0.8-4,0.8c-2,0-3.7-0.4-5.1-1.3
		c-1.4-0.8-2.5-2-3.3-3.4c-0.5-0.8-0.8-1.8-1-2.9c-0.2-1.1-0.3-2.3-0.3-3.6v-10.6c0-1.3,0.1-2.5,0.3-3.6c0.2-1.1,0.5-2.1,1-2.9
		c0.8-1.4,1.9-2.5,3.3-3.4c1.4-0.8,3.1-1.3,5.1-1.3c1.5,0,2.8,0.3,4,0.8c1.2,0.5,2.2,1.2,3,2.1c0.8,0.9,1.5,2,1.9,3.2
		c0.4,1.2,0.7,2.5,0.7,3.9v8.9H300z M300,398.5h6.3v-3.7c0-1.2-0.3-2.1-0.9-2.8c-0.6-0.6-1.3-0.9-2.3-0.9c-1,0-1.7,0.3-2.3,0.9
		c-0.6,0.6-0.9,1.5-0.9,2.8V398.5z"/>
	<path fill="#444545" d="M315.6,385h6.5v3.4c1.3-1.2,2.6-2.1,3.9-2.8c1.3-0.7,2.8-1,4.7-1v6.9c-0.6-0.3-1.3-0.4-2-0.4
		c-0.7,0-1.4,0.1-2.2,0.3c-0.8,0.2-1.5,0.6-2.2,1.2c-0.7,0.5-1.2,1.3-1.6,2.2c-0.4,0.9-0.6,2-0.6,3.3v19.1h-6.5V385z"/>
	<path fill="#444545" d="M342.4,372h19.3v6.1h-12.8v13.7H360v6.1h-11.2v19.3h-6.5V372z"/>
	<path fill="#444545" d="M364.7,372h6.5v6.5h-6.5V372z M364.7,385h6.5v32.2h-6.5V385z"/>
	<path fill="#444545" d="M376.5,375.2h6.5v9.8h4v5.1h-4v17.8c0,0.8,0.1,1.4,0.2,1.8c0.1,0.4,0.4,0.7,0.7,1c0.3,0.2,0.7,0.3,1.2,0.4
		c0.5,0,1.1,0.1,1.8,0.1v6.1h-2.7c-1.5,0-2.7-0.2-3.7-0.7c-1-0.5-1.8-1.1-2.4-1.8c-0.6-0.7-1-1.5-1.3-2.4c-0.3-0.9-0.4-1.8-0.4-2.6
		v-19.5h-3.2V385h3.2V375.2z"/>
</g>
</svg>
