<?xml version="1.0" encoding="utf-8"?>
<!-- Generator: Adobe Illustrator 18.1.1, SVG Export Plug-In . SVG Version: 6.00 Build 0)  -->
<svg version="1.1" id="Layer_1" xmlns="http://www.w3.org/2000/svg" xmlns:xlink="http://www.w3.org/1999/xlink" x="0px" y="0px"
	 viewBox="2.5 535.7 1223 340.7" enable-background="new 2.5 535.7 1223 340.7" xml:space="preserve">
<g>
	<path fill="#FFFFFF" d="M99.2,823.9H2.5v-45.8l69.7-242.4H124L51.3,778.1h48v-96.7H148v96.7h23.4v45.8H148v50.4H99.2V823.9z"/>
	<path fill="#97140B" d="M198.3,535.9h144.9v45.8h-96.1v99.7h84.1v45.8h-84.1v99.7h96.1v48.8H198.3V535.9L198.3,535.9z"/>
	<path fill="#97140B" d="M456.3,875.1h-42.8l-62.9-241.6h51.8l32.2,154.5h0.8l32.2-154.5h51.8L456.3,875.1z"/>
	<path fill="#97140B" d="M572.6,772.1v33c0,7.6,2.2,13.6,6.8,17.2c4.6,3.8,9.8,6,17.2,6c9,0,15-3,18-8.2c3-5.2,4.6-10.6,5.2-16.6
		h48.8c0,10.6-1.6,19.6-5.2,28.6c-3,9-8.2,16.6-14.2,22.6c-6,6.8-14.2,12-22.6,15.8c-9,3.8-18.8,6-30,6c-15,0-27.8-3-38.2-9.8
		c-10.6-6-18.8-15-24.8-25.6c-3.8-6-6-13.6-7.6-21.8c-1.6-8.2-2.2-17.2-2.2-27v-79.5c0-9.8,0.8-18.8,2.2-27
		c1.6-8.2,3.8-15.8,7.6-21.8c6-10.6,14.2-18.8,24.8-25.6c10.6-6,23.2-9.8,38.2-9.8c11.2,0,21,2.2,30,6s16.6,9,22.6,15.8
		c6,6.8,11.2,15,14.2,24c3,9,5.2,18.8,5.2,29.2v66.7h-96.1v1.8H572.6z M572.6,734.8H620V707c0-9-2.2-15.8-6.8-21
		c-4.6-4.6-9.8-6.8-17.2-6.8c-7.6,0-12.8,2.2-17.2,6.8c-4.6,4.6-6.8,11.2-6.8,21v27.8H572.6z"/>
	<path fill="#97140B" d="M689.7,633.5h48.8V659c9.8-9,19.6-15.8,29.2-21c9.8-5.2,21-7.6,35.2-7.6v51.8c-4.6-2.2-9.8-3-15-3
		c-5.2,0-10.6,0.8-16.6,2.2c-6,1.6-11.2,4.6-16.6,9c-5.2,3.8-9,9.8-12,16.6c-3,6.8-4.6,15-4.6,24.8v143.3h-48.8L689.7,633.5
		L689.7,633.5z"/>
	<path fill="#97140B" d="M890.8,535.9h144.9v45.8h-96.1v102.7h83.3v45.8h-84.1v144.9H890V535.9H890.8z"/>
	<path fill="#97140B" d="M1058.2,535.9h48.8v48.8h-48.8V535.9z M1058.2,633.5h48.8v241.6h-48.8V633.5z"/>
	<path fill="#97140B" d="M1146.8,559.9h48.8v73.5h30v38.2h-30v133.5c0,6,0.8,10.6,1.6,13.6c0.8,3,3,5.2,5.2,7.6c2.2,1.6,5.2,2.2,9,3
		c3.8,0,8.2,0.8,13.6,0.8v45.8h-20.4c-11.2,0-20.2-1.6-27.8-5.2c-7.6-3.8-13.6-8.2-18-13.6c-4.6-5.2-7.6-11.2-9.8-18s-3-13.6-3-19.6
		V673.2h-24v-39.8h24v-73.5L1146.8,559.9L1146.8,559.9z"/>
</g>
</svg>
