<svg xmlns="http://www.w3.org/2000/svg" width="1153" height="340.8" viewBox="0 0 1153 340.8"><style type="text/css">.st0{fill:#A5B2C2;} .st1{fill:#664C4F;}</style><path class="st0" d="M96.7 288.2h-96.7v-45.8l69.7-242.4h51.8l-72.7 242.4h48v-96.7h48.7v96.7h23.4v45.8h-23.4v50.4h-48.8v-50.4z"/><path class="st1" d="M195.8.2h144.9v45.8h-96.1v99.7h84.1v45.8h-84.1v99.7h96.1v48.8h-144.9v-339.8zm258 339.2h-42.8l-62.9-241.6h51.8l32.2 154.5h.8l32.2-154.5h51.8l-63.1 241.6zm116.3-103v33c0 7.6 2.2 13.6 6.8 17.2 4.6 3.8 9.8 6 17.2 6 9 0 15-3 18-8.2s4.6-10.6 5.2-16.6h48.8c0 10.6-1.6 19.6-5.2 28.6-3 9-8.2 16.6-14.2 22.6-6 6.8-14.2 12-22.6 15.8-9 3.8-18.8 6-30 6-15 0-27.8-3-38.2-9.8-10.6-6-18.8-15-24.8-25.6-3.8-6-6-13.6-7.6-21.8-1.6-8.2-2.2-17.2-2.2-27v-79.5c0-9.8.8-18.8 2.2-27 1.6-8.2 3.8-15.8 7.6-21.8 6-10.6 14.2-18.8 24.8-25.6 10.6-6 23.2-9.8 38.2-9.8 11.2 0 21 2.2 30 6s16.6 9 22.6 15.8 11.2 15 14.2 24 5.2 18.8 5.2 29.2v66.7h-96.1l.1 1.8zm0-37.3h47.4v-27.8c0-9-2.2-15.8-6.8-21-4.6-4.6-9.8-6.8-17.2-6.8-7.6 0-12.8 2.2-17.2 6.8-4.6 4.6-6.8 11.2-6.8 21v27.8h.6zm117.1-101.3h48.8v25.5c9.8-9 19.6-15.8 29.2-21 9.8-5.2 21-7.6 35.2-7.6v51.8c-4.6-2.2-9.8-3-15-3s-10.6.8-16.6 2.2c-6 1.6-11.2 4.6-16.6 9-5.2 3.8-9 9.8-12 16.6s-4.6 15-4.6 24.8v143.3h-48.8l.4-241.6zm131-97.6h144.9v45.8h-96.1v102.7h83.3v45.8h-84.1v144.9h-48.8v-339.2h.8zm167.4 0h48.8v48.8h-48.8v-48.8zm0 97.6h48.8v241.6h-48.8v-241.6zm88.6-73.6h48.8v73.5h30v38.2h-30v133.5c0 6 .8 10.6 1.6 13.6s3 5.2 5.2 7.6c2.2 1.6 5.2 2.2 9 3 3.8 0 8.2.8 13.6.8v45.8h-20.4c-11.2 0-20.2-1.6-27.8-5.2-7.6-3.8-13.6-8.2-18-13.6-4.6-5.2-7.6-11.2-9.8-18s-3-13.6-3-19.6v-146.3h-24v-39.8h24v-73.5h.8z"/></svg>