<?xml version="1.0" encoding="utf-8"?>
<!-- Generator: Adobe Illustrator 18.1.1, SVG Export Plug-In . SVG Version: 6.00 Build 0)  -->
<!DOCTYPE svg PUBLIC "-//W3C//DTD SVG 1.1//EN" "http://www.w3.org/Graphics/SVG/1.1/DTD/svg11.dtd">
<svg version="1.1" id="Layer_1" xmlns="http://www.w3.org/2000/svg" xmlns:xlink="http://www.w3.org/1999/xlink" x="0px" y="0px"
	 viewBox="2.5 310.3 612.5 171.5" enable-background="new 2.5 310.3 612.5 171.5" xml:space="preserve">
<g>
	<path fill="#FFFFFF" d="M50.9,454.9H2.5V432l34.9-121.3h25.9L26.9,432h24v-48.4h24.4V432H87v22.9H75.3v25.2H50.9V454.9z"/>
	<path fill="#1A4464" d="M100.5,310.8h72.5v22.9h-48.1v49.9h42.1v22.9h-42.1v49.9h48.1v24.4h-72.5L100.5,310.8L100.5,310.8z"/>
	<path fill="#1A4464" d="M229.6,480.5h-21.4l-31.5-120.9h25.9l16.1,77.3h0.4l16.1-77.3h25.9L229.6,480.5z"/>
	<path fill="#1A4464" d="M287.8,429v16.5c0,3.8,1.1,6.8,3.4,8.6c2.3,1.9,4.9,3,8.6,3c4.5,0,7.5-1.5,9-4.1c1.5-2.6,2.3-5.3,2.6-8.3
		h24.4c0,5.3-0.8,9.8-2.6,14.3c-1.5,4.5-4.1,8.3-7.1,11.3c-3,3.4-7.1,6-11.3,7.9c-4.5,1.9-9.4,3-15,3c-7.5,0-13.9-1.5-19.1-4.9
		c-5.3-3-9.4-7.5-12.4-12.8c-1.9-3-3-6.8-3.8-10.9c-0.8-4.1-1.1-8.6-1.1-13.5v-39.8c0-4.9,0.4-9.4,1.1-13.5
		c0.8-4.1,1.9-7.9,3.8-10.9c3-5.3,7.1-9.4,12.4-12.8c5.3-3,11.6-4.9,19.1-4.9c5.6,0,10.5,1.1,15,3c4.5,1.9,8.3,4.5,11.3,7.9
		s5.6,7.5,7.1,12c1.5,4.5,2.6,9.4,2.6,14.6v33.4h-48.1V429z M287.8,410.3h23.7v-13.9c0-4.5-1.1-7.9-3.4-10.5
		c-2.3-2.3-4.9-3.4-8.6-3.4c-3.8,0-6.4,1.1-8.6,3.4c-2.3,2.3-3.4,5.6-3.4,10.5v13.9H287.8z"/>
	<path fill="#1A4464" d="M346.4,359.6h24.4v12.8c4.9-4.5,9.8-7.9,14.6-10.5c4.9-2.6,10.5-3.8,17.6-3.8V384c-2.3-1.1-4.9-1.5-7.5-1.5
		s-5.3,0.4-8.3,1.1c-3,0.8-5.6,2.3-8.3,4.5c-2.6,1.9-4.5,4.9-6,8.3c-1.5,3.4-2.3,7.5-2.3,12.4v71.7h-24.4L346.4,359.6L346.4,359.6z"
		/>
	<path fill="#1A4464" d="M447,310.8h72.5v22.9h-48.1v51.4h41.7V408h-42.1v72.5h-24.4V310.8H447z"/>
	<path fill="#1A4464" d="M530.8,310.8h24.4v24.4h-24.4V310.8z M530.8,359.6h24.4v120.9h-24.4V359.6z"/>
	<path fill="#1A4464" d="M575.1,322.8h24.4v36.8h15v19.1h-15v66.8c0,3,0.4,5.3,0.8,6.8c0.4,1.5,1.5,2.6,2.6,3.8
		c1.1,0.8,2.6,1.1,4.5,1.5c1.9,0,4.1,0.4,6.8,0.4v22.9H604c-5.6,0-10.1-0.8-13.9-2.6c-3.8-1.9-6.8-4.1-9-6.8c-2.3-2.6-3.8-5.6-4.9-9
		c-1.1-3.4-1.5-6.8-1.5-9.8v-73.2h-12v-19.9h12v-36.8H575.1z"/>
</g>
</svg>
