<svg xmlns="http://www.w3.org/2000/svg" width="432" height="432" viewBox="0 0 432 432"><style type="text/css">.st0{fill:#343B4D;} .st1{fill:#A5B2C2;}</style><circle class="st0" cx="216" cy="216" r="216"/><path class="st1" d="M278.1 92.1c-3 0-5.5 2.4-5.5 5.5v40.3c0 2.2-1.1 4.3-3.1 5.4-1.4.8-3.2 1.2-5.1.3-2.2-1-3.4-3.2-3.5-5.6v-41.5c0-3-2.5-5.5-5.5-5.5h-1.1c-3 0-5.5 2.5-5.5 5.5v41.5c0 2.4-1.3 4.6-3.5 5.6-1.9.9-3.7.4-5.1-.3-1.9-1.1-3.1-3.2-3.1-5.4v-40.4c0-3-2.5-5.5-5.5-5.5s-5.5 2.5-5.5 5.5v62.4c0 1 .1 2 .2 3 1.6 7.7 9.1 12.8 13.5 15.6 1.9 1.2 3.4 2.7 4.5 4.1 1.7 2 2.6 4.6 2.6 7.2l-2.4 58.2s-2 78 1.7 88.3c1.6 4.5 4.7 6 7.6 6.2 5 .3 9.4-3 10.8-7.9 6.3-21.6 1.8-86.6 1.8-86.6l-3.8-58.2c0-2.6.9-5.2 2.6-7.2 1.1-1.4 2.6-2.9 4.5-4.1 4.3-2.8 11.8-7.9 13.5-15.6.2-1 .2-2 .2-3v-62.4c.2-3-2.3-5.4-5.3-5.4zm-91.1-.2c-4.6-2.9-10.4-3.2-15.3-.9-6.4 3-14.9 10-20 26.2-8.8 28.5 2.7 46.2 2.7 46.2s6.9 10 12.5 16.5c2.3 2.6 3.4 6.1 3.1 9.6-2.5 28.7-12.2 154.8 7.8 152.6 0 0 16.8 7.5 13.4-66.9-2.3-52.5-3.1-76.8-3.4-86.6-.1-3.6 1.2-7.1 3.6-9.8 3.3-3.7 8-9.1 10.3-12.4 3.8-5.4 14-22.8 5.2-47.9-5.3-15.2-13.9-22.9-19.9-26.6z"/></svg>