<?xml version="1.0" encoding="utf-8"?>
<!-- Generator: Adobe Illustrator 18.1.0, SVG Export Plug-In . SVG Version: 6.00 Build 0)  -->
<!DOCTYPE svg PUBLIC "-//W3C//DTD SVG 1.1//EN" "http://www.w3.org/Graphics/SVG/1.1/DTD/svg11.dtd">
<svg version="1.1" id="Layer_1" xmlns="http://www.w3.org/2000/svg" xmlns:xlink="http://www.w3.org/1999/xlink" x="0px" y="0px"
	 viewBox="0 0 612 792" enable-background="new 0 0 612 792" xml:space="preserve">
<path fill="#E16A64" d="M583.8,205.9l-81.4,81.4c-4.5,4.5-11,6.4-17.1,4.7c-4.4-1.3-8.9-4-11-9.6c-2.4-6.3-0.4-13.5,4.3-18.3
	l83.8-83.8c6.1-6.1,6.1-16.1,0-22.2l-1.8-1.8l0,0l-0.4-0.4c-6.1-6.1-16.1-6.1-22.2,0l-83.8,83.8c-4.8,4.8-11.9,6.7-18.3,4.3
	c-5.7-2.1-8.4-6.6-9.6-11c-1.7-6.1,0.2-12.6,4.7-17.1l81.4-81.4c6.1-6.1,6.1-16.1,0-22.2l0,0c-6.1-6.1-16.1-6.1-22.2,0l-125.9,126
	c-2,2-3.9,4.2-5.5,6.5c-12.3,18.8-7.4,44.3-4.3,58.6c1.3,6.2,1.3,12.3,0.8,17.3c-0.7,7.4-4.1,14.4-9.4,19.7l-23.1,23.1l16.7,16.7
	l0,0l15.3,15.3l23.1-23.1c5.3-5.3,12.2-8.7,19.7-9.4c5-0.5,11.1-0.5,17.3,0.8c14.3,3.1,39.8,8,58.6-4.3c2.4-1.6,4.5-3.5,6.5-5.5
	l126-125.8c6.1-6.1,6.1-16.1,0-22.2l0,0C599.9,199.8,590,199.8,583.8,205.9z"/>
<path fill="#E16A64" d="M223.7,453.1l44.4,44.4c0,0-122.2,140.3-178.5,171.2c-12.5,6.9-28.3,4.8-37.7-6c-5.5-6.4-8.8-15.5-2.9-27.9
	C62.4,606.5,223.7,453.1,223.7,453.1z"/>
<path fill="#EE8034" d="M38.8,146.9c-14.9,3.5-27.1,14.3-32.4,28.7c-6.8,18.8-9.9,49.7,12.4,92c39.2,74.3,97.6,86.8,97.6,86.8
	s33.6,6.1,57.8,7.9c9.8,0.7,18.9,5.5,25.2,13c52.4,62.2,284.4,332.9,319.8,288.6c0,0,48.4-18.4-106.7-160.1
	C303.2,403.8,253.1,356.9,233,337.9c-7.4-7-11.8-16.5-12.4-26.7c-0.8-14-2.2-34.1-4.2-45.3c-3.3-18.4-17.5-73.4-85.1-105.9
	C90.8,140.4,58.2,142.3,38.8,146.9z"/>
</svg>
