<?xml version="1.0" encoding="utf-8"?>
<!-- Generator: Adobe Illustrator 18.1.0, SVG Export Plug-In . SVG Version: 6.00 Build 0)  -->
<!DOCTYPE svg PUBLIC "-//W3C//DTD SVG 1.1//EN" "http://www.w3.org/Graphics/SVG/1.1/DTD/svg11.dtd">
<svg version="1.1" id="Layer_1" xmlns="http://www.w3.org/2000/svg" xmlns:xlink="http://www.w3.org/1999/xlink" x="0px" y="0px"
	 viewBox="256.2 343.1 100 105.6" enable-background="new 256.2 343.1 100 105.6" xml:space="preserve">
<path fill="#EE8034" d="M311.7,370.6c-10.3-2.1-21.1-2.1-31.2,1c-15.5,4.8-33.5,17.5-18.9,51.9c0,0,11.8,31.3,32.9,24.3
	c3.9-1.3,8-2.3,12.2-2.2c1.6,0.1,3.4,0.2,5.3,0.5c7.4,1.2,23.4,0,30.5-48C342.4,398,345.3,377.5,311.7,370.6z"/>
<circle fill="#FFFFFF" cx="270" cy="393.6" r="7.2"/>
<path fill="#EE8034" d="M306.6,364.9c0-3.3,1.4-15.4,19-19.3c4.8-1.1,9.7-1.1,14.6-0.5c5,0.6,12.7,1,15.5-1.6
	c4.4-4-17.6,28.7-48.3,22.4C306.9,365.8,306.5,365.4,306.6,364.9z"/>
</svg>
