<?xml version="1.0" encoding="utf-8"?>
<!-- Generator: Adobe Illustrator 18.1.0, SVG Export Plug-In . SVG Version: 6.00 Build 0)  -->
<!DOCTYPE svg PUBLIC "-//W3C//DTD SVG 1.1//EN" "http://www.w3.org/Graphics/SVG/1.1/DTD/svg11.dtd">
<svg version="1.1" id="Layer_1" xmlns="http://www.w3.org/2000/svg" xmlns:xlink="http://www.w3.org/1999/xlink" x="0px" y="0px"
	 viewBox="306.1 45.4 611.3 701.3" enable-background="new 306.1 45.4 611.3 701.3" xml:space="preserve">
<path fill="#97140B" d="M645.1,240.7c-63-12.9-129.1-12.9-190.9,6.1c-94.9,29.4-205,107.1-115.7,317.6c0,0,72.2,191.6,201.3,148.7
	c23.9-8,49-14.1,74.7-13.5c9.8,0.6,20.8,1.2,32.4,3.1c45.3,7.3,143.2,0,186.7-293.8C832.9,408.4,850.7,282.9,645.1,240.7z"/>
<circle fill="#FFFFFF" cx="389.9" cy="381.5" r="44.1"/>
<path fill="#97140B" d="M613.8,205.8c0-20.2,8.6-94.2,116.3-118.1c29.4-6.7,59.4-6.7,89.4-3.1c30.6,3.7,77.7,6.1,94.9-9.8
	c26.9-24.4-107.8,175.7-295.7,137.1C615.7,211.3,613.2,208.9,613.8,205.8z"/>
</svg>
