<?xml version="1.0" encoding="utf-8"?>
<!-- Generator: Adobe Illustrator 18.1.0, SVG Export Plug-In . SVG Version: 6.00 Build 0)  -->
<!DOCTYPE svg PUBLIC "-//W3C//DTD SVG 1.1//EN" "http://www.w3.org/Graphics/SVG/1.1/DTD/svg11.dtd">
<svg version="1.1" id="Layer_1" xmlns="http://www.w3.org/2000/svg" xmlns:xlink="http://www.w3.org/1999/xlink" x="0px" y="0px"
	 viewBox="0 0 612 792" enable-background="new 0 0 612 792" xml:space="preserve">
<path fill="#EE8034" d="M339.5,240.6c-63-12.9-129.1-12.9-190.9,6.1c-94.9,29.4-205,107.1-115.7,317.6c0,0,72.2,191.6,201.3,148.7
	c23.9-8,49-14.1,74.7-13.5c9.8,0.6,20.8,1.2,32.4,3.1c45.3,7.3,143.2,0,186.7-293.8C527.3,408.3,545.1,282.8,339.5,240.6z"/>
<circle fill="#FFFFFF" cx="84.3" cy="381.4" r="44.1"/>
<path fill="#EE8034" d="M308.2,205.7c0-20.2,8.6-94.2,116.3-118.1c29.4-6.7,59.4-6.7,89.4-3.1c30.6,3.7,77.7,6.1,94.9-9.8
	C635.7,50.3,501,250.4,313.1,211.8C310.1,211.2,307.6,208.8,308.2,205.7z"/>
</svg>
