<svg xmlns="http://www.w3.org/2000/svg" width="432" height="432" viewBox="0 0 432 432"><style type="text/css">.st0{fill:#343B4D;} .st1{fill:#FFFFFF;} .st2{fill:#A5B2C2;} .st3{fill:#664C4F;}</style><circle class="st0" cx="216" cy="216" r="216"/><circle class="st1" cx="230.7" cy="288.5" r="6.9"/><path class="st2" d="M125.9 135.9v165.6h140.7v-165.6h-17v144h-106.7v-144zm94.5 1.7s-5.2-29.6-24.7-29.6l-24.7 29.6h-14.9v26.2h79.1v-26.2h-14.8zm-24.1-.5c-4.6 0-8.4-3.8-8.4-8.4 0-4.6 3.8-8.4 8.4-8.4 4.6 0 8.4 3.8 8.4 8.4-.4 4.6-4 8.4-8.4 8.4z"/><circle class="st2" cx="255.8" cy="273.7" r="50.3"/><path class="st3" d="M292.9 263.2l-7.7-10.3-39 29.2-14.5-21-10.3 6.7 22 32.3 10.3-7.1-.2-.2z"/></svg>