<?xml version="1.0" encoding="utf-8"?>
<!-- Generator: Adobe Illustrator 18.1.0, SVG Export Plug-In . SVG Version: 6.00 Build 0)  -->
<!DOCTYPE svg PUBLIC "-//W3C//DTD SVG 1.1//EN" "http://www.w3.org/Graphics/SVG/1.1/DTD/svg11.dtd">
<svg version="1.1" id="Layer_1" xmlns="http://www.w3.org/2000/svg" xmlns:xlink="http://www.w3.org/1999/xlink" x="0px" y="0px"
	 viewBox="251.4 339.2 100 114.7" enable-background="new 251.4 339.2 100 114.7" xml:space="preserve">
<circle fill="#FFFFFF" cx="301.4" cy="425.3" r="3.3"/>
<polygon fill="#444545" points="251.4,352.5 251.4,431.5 318.5,431.5 318.5,352.5 310.4,352.5 310.4,421.2 259.5,421.2 259.5,352.5 
	"/>
<path fill="#444545" d="M265.8,353.3v12.5h37.7v-12.5h-10.3c0,0,0.8-14.1-8.5-14.1s-8.5,14.1-8.5,14.1H265.8z"/>
<path fill="#FFFFFF" d="M285,353.1L285,353.1c-2.2,0-4-1.8-4-4l0,0c0-2.2,1.8-4,4-4l0,0c2.2,0,4,1.8,4,4l0,0
	C288.8,351.3,287.1,353.1,285,353.1z"/>
<circle fill="#444545" cx="327.4" cy="429.9" r="24"/>
<polygon fill="#EE8034" points="345.1,424.9 341.4,420 322.8,433.9 315.9,423.9 311,427.1 321.5,442.5 326.4,439.1 326.3,439 "/>
</svg>
