<?xml version="1.0" encoding="utf-8"?>
<!-- Generator: Adobe Illustrator 18.1.0, SVG Export Plug-In . SVG Version: 6.00 Build 0)  -->
<!DOCTYPE svg PUBLIC "-//W3C//DTD SVG 1.1//EN" "http://www.w3.org/Graphics/SVG/1.1/DTD/svg11.dtd">
<svg version="1.1" id="Layer_1" xmlns="http://www.w3.org/2000/svg" xmlns:xlink="http://www.w3.org/1999/xlink" x="0px" y="0px"
	 viewBox="306.1 45.4 611.3 701.3" enable-background="new 306.1 45.4 611.3 701.3" xml:space="preserve">
<circle fill="#FFFFFF" cx="611.7" cy="571.8" r="20.2"/>
<polygon fill="#444545" points="306,126.7 306,609.7 716.3,609.7 716.3,126.7 666.7,126.7 666.7,546.7 355.5,546.7 355.5,126.7 "/>
<path fill="#444545" d="M394,131.6V208h230.5v-76.4h-63c0,0,4.9-86.2-52-86.2s-52,86.2-52,86.2H394z"/>
<path fill="#FFFFFF" d="M511.4,130.3L511.4,130.3c-13.5,0-24.5-11-24.5-24.5l0,0c0-13.5,11-24.5,24.5-24.5l0,0
	c13.5,0,24.5,11,24.5,24.5l0,0C534.7,119.3,524.3,130.3,511.4,130.3z"/>
<circle fill="#444545" cx="770.7" cy="599.9" r="146.7"/>
<polygon fill="#EE8034" points="878.9,569.3 856.3,539.4 742.6,624.4 700.4,563.2 670.4,582.8 734.6,677 764.6,656.2 764,655.6 "/>
</svg>
