<svg xmlns="http://www.w3.org/2000/svg" width="162.2" height="162.2" viewBox="0 0 162.2 162.2"><style type="text/css">.st0{fill:#343B4D;} .st1{fill:#A5B2C2;}</style><circle class="st0" cx="81.1" cy="81.1" r="81.1"/><path class="st1" d="M126.1 53.2c-3.3 1.5-6.9 2.5-10.6 2.9 3.8-2.3 6.7-5.9 8.1-10.2-3.6 2.1-7.5 3.6-11.7 4.5-3.4-3.6-8.1-5.8-13.5-5.8-10.2 0-18.4 8.3-18.4 18.4 0 1.4.2 2.8.5 4.2-15.3-.8-28.9-8.1-38-19.3-1.6 2.7-2.5 5.9-2.5 9.3 0 6.4 3.2 12 8.2 15.4-3-.1-5.9-.9-8.4-2.3v.2c0 8.9 6.3 16.4 14.8 18.1-1.5.4-3.2.6-4.9.6-1.2 0-2.3-.1-3.5-.3 2.3 7.3 9.2 12.7 17.2 12.8-6.3 4.9-14.3 7.9-22.9 7.9-1.5 0-3-.1-4.4-.3 8.2 5.2 17.8 8.3 28.3 8.3 33.9 0 52.5-28.1 52.5-52.5v-2.4c3.6-2.5 6.7-5.8 9.2-9.5z"/></svg>