<svg xmlns="http://www.w3.org/2000/svg" width="162.2" height="162.2" viewBox="0 0 162.2 162.2"><style type="text/css">.st0{fill:#A5B2C2;}</style><path class="st0" d="M81.1 0c-44.8 0-81.1 36.3-81.1 81.1s36.3 81.1 81.1 81.1 81.1-36.3 81.1-81.1-36.3-81.1-81.1-81.1zm35.8 62.7v2.4c0 24.4-18.6 52.5-52.5 52.5-10.5 0-20.1-3.1-28.3-8.3 1.4.2 2.9.3 4.4.3 8.6 0 16.6-3 22.9-7.9-8-.1-14.9-5.5-17.2-12.8 1.2.2 2.3.3 3.5.3 1.7 0 3.4-.2 4.9-.6-8.5-1.7-14.8-9.2-14.8-18.1v-.2c2.5 1.4 5.4 2.2 8.4 2.3-5-3.4-8.2-9-8.2-15.4 0-3.4.9-6.6 2.5-9.3 9.1 11.2 22.7 18.5 38 19.3-.3-1.4-.5-2.8-.5-4.2 0-10.1 8.2-18.4 18.4-18.4 5.4 0 10.1 2.2 13.5 5.8 4.2-.9 8.1-2.4 11.7-4.5-1.4 4.3-4.3 7.9-8.1 10.2 3.7-.4 7.3-1.4 10.6-2.9-2.5 3.7-5.6 7-9.2 9.5z"/></svg>