<?xml version="1.0" encoding="utf-8"?>
<!-- Generator: Adobe Illustrator 18.1.0, SVG Export Plug-In . SVG Version: 6.00 Build 0)  -->
<!DOCTYPE svg PUBLIC "-//W3C//DTD SVG 1.1//EN" "http://www.w3.org/Graphics/SVG/1.1/DTD/svg11.dtd">
<svg version="1.1" id="Layer_1" xmlns="http://www.w3.org/2000/svg" xmlns:xlink="http://www.w3.org/1999/xlink" x="0px" y="0px"
	 viewBox="250.5 369.6 100 47.2" enable-background="new 250.5 369.6 100 47.2" xml:space="preserve">
<path fill="#E16A64" d="M268.6,416.7L268.6,416.7c-2.4,0-4.4-1.9-4.4-4.4V374c0-2.4,1.9-4.4,4.4-4.4l0,0c2.4,0,4.4,1.9,4.4,4.4v38.4
	C272.9,414.7,271,416.7,268.6,416.7z"/>
<path fill="#EE8034" d="M259,409.7L259,409.7c-2.1,0-4-1.7-4-4v-24.9c0-2.1,1.7-4,4-4l0,0c2.1,0,4,1.7,4,4v25
	C262.9,408,261.1,409.7,259,409.7z"/>
<path fill="#EE8034" d="M253.1,404.7L253.1,404.7c-1.4,0-2.7-1.1-2.7-2.7v-17.4c0-1.4,1.1-2.7,2.7-2.7l0,0c1.4,0,2.7,1.1,2.7,2.7
	v17.4C255.7,403.6,254.6,404.7,253.1,404.7z"/>
<path fill="#E16A64" d="M332.4,416.9L332.4,416.9c2.4,0,4.4-1.9,4.4-4.4v-38.4c0-2.4-1.9-4.4-4.4-4.4l0,0c-2.4,0-4.4,1.9-4.4,4.4
	v38.4C328,414.9,330,416.9,332.4,416.9z"/>
<path fill="#EE8034" d="M342,409.9L342,409.9c2.1,0,4-1.7,4-4v-25c0-2.1-1.7-4-4-4l0,0c-2.1,0-4,1.7-4,4v25.1
	C338,408.2,339.8,409.9,342,409.9z"/>
<path fill="#EE8034" d="M347.8,404.9L347.8,404.9c1.4,0,2.7-1.1,2.7-2.7v-17.4c0-1.4-1.1-2.7-2.7-2.7l0,0c-1.4,0-2.7,1.1-2.7,2.7
	v17.4C345.3,403.7,346.4,404.9,347.8,404.9z"/>
<path fill="#444545" d="M323.2,395.8h-45.9c-1.6,0-3.1-1.3-3.1-3.1l0,0c0-1.6,1.3-3.1,3.1-3.1h45.8c1.6,0,3.1,1.3,3.1,3.1l0,0
	C326.2,394.5,324.9,395.8,323.2,395.8z"/>
</svg>
