<svg xmlns="http://www.w3.org/2000/svg" width="432" height="432" viewBox="0 0 432 432"><style type="text/css">.st0{fill:#343B4D;} .st1{fill:#A5B2C2;} .st2{fill:#664C4F;}</style><circle class="st0" cx="216" cy="216" r="216"/><path class="st1" d="M116.8 289c-7.4 0-13.7-5.9-13.7-13.7v-119.3c0-7.4 5.9-13.7 13.7-13.7 7.4 0 13.7 5.9 13.7 13.7v119.6c-.2 7.2-6.2 13.4-13.7 13.4zm-29.9-21.8c-6.5 0-12.4-5.3-12.4-12.4v-77.6c0-6.5 5.3-12.4 12.4-12.4 6.5 0 12.4 5.3 12.4 12.4v77.9c-.2 6.9-5.8 12.1-12.4 12.1zm-24.5-15.6c-4.3 0-8.4-3.4-8.4-8.4v-54.1c0-4.3 3.4-8.4 8.4-8.4 4.3 0 8.4 3.4 8.4 8.4v54.2c-.3 4.9-3.7 8.3-8.4 8.3zm253.1 38c7.4 0 13.7-5.9 13.7-13.7v-119.5c0-7.4-5.9-13.7-13.7-13.7-7.4 0-13.7 5.9-13.7 13.7v119.6c0 7.4 6.2 13.6 13.7 13.6zm29.8-21.8c6.5 0 12.4-5.3 12.4-12.4v-77.9c0-6.5-5.3-12.4-12.4-12.4-6.5 0-12.4 5.3-12.4 12.4v78.2c0 6.9 5.6 12.1 12.4 12.1zm24.3-15.5c4.3 0 8.4-3.4 8.4-8.4v-54.2c0-4.3-3.4-8.4-8.4-8.4-4.3 0-8.4 3.4-8.4 8.4v54.2c.6 4.6 4 8.4 8.4 8.4z"/><path class="st2" d="M287.7 224h-142.9c-5 0-9.6-4-9.6-9.6 0-5 4-9.6 9.6-9.6h142.6c5 0 9.6 4 9.6 9.6.1 5.5-3.9 9.6-9.3 9.6z"/></svg>