<?xml version="1.0" encoding="utf-8"?>
<!-- Generator: Adobe Illustrator 18.1.0, SVG Export Plug-In . SVG Version: 6.00 Build 0)  -->
<!DOCTYPE svg PUBLIC "-//W3C//DTD SVG 1.1//EN" "http://www.w3.org/Graphics/SVG/1.1/DTD/svg11.dtd">
<svg version="1.1" id="Layer_1" xmlns="http://www.w3.org/2000/svg" xmlns:xlink="http://www.w3.org/1999/xlink" x="0px" y="0px"
	 viewBox="0 0 612 792" enable-background="new 0 0 612 792" xml:space="preserve">
<path fill="#E16A64" d="M110.6,538.4L110.6,538.4c-14.6,0-26.8-11.6-26.8-26.8V278.1c0-14.6,11.6-26.8,26.8-26.8l0,0
	c14.6,0,26.8,11.6,26.8,26.8v234.1C136.9,526.2,125.3,538.4,110.6,538.4z"/>
<path fill="#EE8034" d="M52.1,495.7L52.1,495.7c-12.8,0-24.4-10.4-24.4-24.4V319.5c0-12.8,10.4-24.4,24.4-24.4l0,0
	c12.8,0,24.4,10.4,24.4,24.4v152.4C75.9,485.4,64.9,495.7,52.1,495.7z"/>
<path fill="#EE8034" d="M16.2,465.2L16.2,465.2c-8.5,0-16.5-6.7-16.5-16.5V342.7c0-8.5,6.7-16.5,16.5-16.5l0,0
	c8.5,0,16.5,6.7,16.5,16.5v106.1C32,458.5,25.3,465.2,16.2,465.2z"/>
<path fill="#E16A64" d="M499.6,539.6L499.6,539.6c14.6,0,26.8-11.6,26.8-26.8V278.7c0-14.6-11.6-26.8-26.8-26.8l0,0
	c-14.6,0-26.8,11.6-26.8,26.8v234.1C472.8,527.4,485,539.6,499.6,539.6z"/>
<path fill="#EE8034" d="M558.1,496.9L558.1,496.9c12.8,0,24.4-10.4,24.4-24.4V320.1c0-12.8-10.4-24.4-24.4-24.4l0,0
	c-12.8,0-24.4,10.4-24.4,24.4v153C533.7,486.6,544.7,496.9,558.1,496.9z"/>
<path fill="#EE8034" d="M593.5,466.5L593.5,466.5c8.5,0,16.5-6.7,16.5-16.5V343.9c0-8.5-6.7-16.5-16.5-16.5l0,0
	c-8.5,0-16.5,6.7-16.5,16.5V450C578.2,459.1,584.9,466.5,593.5,466.5z"/>
<path fill="#444545" d="M443.5,411H163.7c-9.8,0-18.9-7.9-18.9-18.9l0,0c0-9.8,7.9-18.9,18.9-18.9h279.2c9.8,0,18.9,7.9,18.9,18.9
	l0,0C461.8,403.1,453.9,411,443.5,411z"/>
</svg>
