<?xml version="1.0" encoding="utf-8"?>
<!-- Generator: Adobe Illustrator 18.1.0, SVG Export Plug-In . SVG Version: 6.00 Build 0)  -->
<!DOCTYPE svg PUBLIC "-//W3C//DTD SVG 1.1//EN" "http://www.w3.org/Graphics/SVG/1.1/DTD/svg11.dtd">
<svg version="1.1" id="Layer_1" xmlns="http://www.w3.org/2000/svg" xmlns:xlink="http://www.w3.org/1999/xlink" x="0px" y="0px"
	 viewBox="306.1 45.4 611.3 701.3" enable-background="new 306.1 45.4 611.3 701.3" xml:space="preserve">
<path fill="#97140B" d="M417.4,539L417.4,539c-14.6,0-26.8-11.6-26.8-26.8V278.7c0-14.6,11.6-26.8,26.8-26.8l0,0
	c14.6,0,26.8,11.6,26.8,26.8v234.1C443.8,526.8,432.1,539,417.4,539z"/>
<path fill="#EE8034" d="M358.9,496.3L358.9,496.3c-12.8,0-24.4-10.4-24.4-24.4V320.1c0-12.8,10.4-24.4,24.4-24.4l0,0
	c12.8,0,24.4,10.4,24.4,24.4v152.4C382.8,486,371.8,496.3,358.9,496.3z"/>
<path fill="#EE8034" d="M323,465.8L323,465.8c-8.5,0-16.5-6.7-16.5-16.5v-106c0-8.5,6.7-16.5,16.5-16.5l0,0
	c8.5,0,16.5,6.7,16.5,16.5v106.1C338.9,459.1,332.1,465.8,323,465.8z"/>
<path fill="#97140B" d="M806.5,540.2L806.5,540.2c14.6,0,26.8-11.6,26.8-26.8V279.3c0-14.6-11.6-26.8-26.8-26.8l0,0
	c-14.6,0-26.8,11.6-26.8,26.8v234.1C779.6,528,791.8,540.2,806.5,540.2z"/>
<path fill="#EE8034" d="M864.9,497.5L864.9,497.5c12.8,0,24.4-10.4,24.4-24.4V320.7c0-12.8-10.4-24.4-24.4-24.4l0,0
	c-12.8,0-24.4,10.4-24.4,24.4v153C840.5,487.2,851.5,497.5,864.9,497.5z"/>
<path fill="#EE8034" d="M900.3,467.1L900.3,467.1c8.5,0,16.5-6.7,16.5-16.5V344.5c0-8.5-6.7-16.5-16.5-16.5l0,0
	c-8.5,0-16.5,6.7-16.5,16.5v106.1C885,459.7,891.8,467.1,900.3,467.1z"/>
<path fill="#444545" d="M750.3,411.6H470.5c-9.8,0-18.9-7.9-18.9-18.9l0,0c0-9.8,7.9-18.9,18.9-18.9h279.2c9.8,0,18.9,7.9,18.9,18.9
	l0,0C768.6,403.7,760.8,411.6,750.3,411.6z"/>
</svg>
